<svg width="44" height="32" viewBox="0 0 44 32" fill="none" xmlns="http://www.w3.org/2000/svg">
<rect x="12" width="32" height="32" rx="10" fill="white"/>
<path d="M32.335 9.88147L35.5467 13.0091C35.682 13.1409 35.682 13.3559 35.5467 13.4876L27.7703 21.0606L24.4661 21.4178C24.0245 21.4663 23.6507 21.1022 23.7005 20.6723L24.0673 17.4544L31.8436 9.88147C31.9789 9.74971 32.1997 9.74971 32.335 9.88147ZM38.1032 9.08742L36.3656 7.39529C35.8244 6.86824 34.9449 6.86824 34.4002 7.39529L33.1397 8.62278C33.0044 8.75454 33.0044 8.96953 33.1397 9.10129L36.3514 12.229C36.4867 12.3607 36.7074 12.3607 36.8427 12.229L38.1032 11.0015C38.6444 10.4709 38.6444 9.61448 38.1032 9.08742ZM31.6727 19.0009V22.5308H20.2788V11.4349H28.4611C28.575 11.4349 28.6818 11.3898 28.7637 11.3135L30.188 9.92655C30.4586 9.66302 30.2663 9.21572 29.8853 9.21572H19.7091C18.7655 9.21572 18 9.96122 18 10.8801V23.0856C18 24.0045 18.7655 24.75 19.7091 24.75H32.2424C33.186 24.75 33.9515 24.0045 33.9515 23.0856V17.6139C33.9515 17.2429 33.4922 17.0591 33.2216 17.3192L31.7973 18.7062C31.719 18.7859 31.6727 18.89 31.6727 19.0009Z" fill="#649FBF"/>
<rect width="4" height="32" fill="white"/>
</svg>
